# xmcd
#
# Track frame offsets:
#	150
#	14207
#	25473
#	38448
#	49262
#	66096
#	80264
#	93876
#	105870
#	126073
#	139288
#	152097
#	165825
#
# Disc length: 2496 seconds
#
# Revision: 0
# Processed by: cddbd v1.5.1PL0 Copyright (c) Steve Scherf et al.
# Submitted via: dBpowerAMP V4.0
#
DISCID=9a09be0d
DTITLE=Tim Scott McConnell - 13 Songs
DYEAR=1900
DGENRE=
TTITLE0=The Only One
TTITLE1=Mean To Me
TTITLE2=Sweet Sinner
TTITLE3=Fake It
TTITLE4=Far From Grace
TTITLE5=On The Other Side
TTITLE6=Terms
TTITLE7=Unforgiven
TTITLE8=Hopeless
TTITLE9=In No Mans Love
TTITLE10=No One But You
TTITLE11=Devil Dog
TTITLE12=Wicked State Of Minde
EXTD=
EXTT0=
EXTT1=
EXTT2=
EXTT3=
EXTT4=
EXTT5=
EXTT6=
EXTT7=
EXTT8=
EXTT9=
EXTT10=
EXTT11=
EXTT12=
PLAYORDER=
